# AST/ASF file generated using VICON BodyLanguage
# -----------------------------------------------
:version 1.10
:name VICON
:units
  mass 1.0
  length 0.45
  angle deg
:documentation
   .ast/.asf automatically generated from VICON data using
   VICON BodyBuilder and BodyLanguage model FoxedUp or BRILLIANT.MOD
:root
   order TX TY TZ RX RY RZ
   axis XYZ
   position 0 0 0  
   orientation 0 0 0 
:bonedata
  begin
     id 1 
     name lhipjoint
     direction 0.627457 -0.725269 0.283342 
     length 2.53237 
     axis 0 0 0  XYZ
  end
  begin
     id 2 
     name lfemur
     direction 0.34202 -0.939693 0  
     length 7.32496  
     axis 0 0 20  XYZ
    dof rx ry rz
    limits (-160.0 20.0)
           (-70.0 70.0)
           (-60.0 70.0)
  end
  begin
     id 3 
     name ltibia
     direction 0.34202 -0.939693 0   
     length 7.69674   
     axis 0 0 20   XYZ
    dof rx
    limits (-10.0 170.0)
  end
  begin
     id 4 
     name lfoot
     direction 0.127289 -0.349722 0.928166   
     length 1.8612   
     axis -90 7.62852e-016 20   XYZ
    dof rx rz
    limits (-45.0 90.0)
           (-70.0 20.0)
  end
  begin
     id 5 
     name ltoes
     direction 1.53561e-011 -4.21864e-011 1   
     length 0.925608   
     axis -90 7.62852e-016 20   XYZ
    dof rx
    limits (-90.0 20.0)
  end
  begin
     id 6 
     name rhipjoint
     direction -0.609094 -0.738725 0.288599   
     length 2.48624  
     axis 0 0 0  XYZ 
  end
  begin
     id 7 
     name rfemur
     direction -0.34202 -0.939693 0   
     length 7.44259   
     axis 0 0 -20   XYZ
    dof rx ry rz
    limits (-160.0 20.0)
           (-70.0 70.0)
           (-70.0 60.0)
  end
  begin
     id 8 
     name rtibia
     direction -0.34202 -0.939693 0   
     length 7.7781   
     axis 0 0 -20   XYZ
    dof rx
    limits (-10.0 170.0)
 end
 begin
     id 9 
     name rfoot
     direction -0.107015 -0.294021 0.949789   
     length 2.14741  
     axis -90 -7.62852e-016 -20   XYZ
    dof rx rz
    limits (-45.0 90.0)
           (-20.0 70.0)
  end
  begin
     id 10 
     name rtoes
     direction -1.53497e-011 -4.21924e-011 1   
     length 1.0706   
     axis -90 -7.62852e-016 -20   XYZ
    dof rx
    limits (-90.0 20.0)
  end
  begin
     id 11 
     name lowerback
     direction -0.0142066 0.998112 -0.0597545   
     length 1.86627   
     axis 0 0 0   XYZ
    dof rx ry rz
    limits (-20.0 45.0)
           (-30.0 30.0)
           (-30.0 30.0)
  end
  begin
     id 12 
     name upperback
     direction 0.00547294 0.999744 0.0219437   
     length 1.86272   
     axis 0 0 0   XYZ
    dof rx ry rz
    limits (-20.0 45.0)
           (-30.0 30.0)
           (-30.0 30.0)
  end
  begin
     id 13 
     name thorax
     direction 0.0116162 0.998704 0.0495538   
     length 1.8703   
     axis 0 0 0   XYZ
    dof rx ry rz
    limits (-20.0 45.0)
           (-30.0 30.0)
           (-30.0 30.0)
  end
  begin
     id 14 
     name lowerneck
     direction -0.0106574 0.998739 0.0490586   
     length 1.8074   
     axis 0 0 0   XYZ
    dof rx ry rz
    limits (-20.0 45.0)
           (-30.0 30.0)
           (-30.0 30.0)
  end
  begin
     id 15 
     name upperneck
     direction 0.030527 0.976587 -0.212944   
     length 1.80681   
     axis 0 0 0   XYZ
    dof rx ry rz
    limits (-20.0 45.0)
           (-30.0 30.0)
           (-30.0 30.0)
  end
  begin
     id 16
     name head
     direction 0.00869225 0.997035 -0.0764531  
     length 1.8313  
     axis 0 0 0   XYZ
    dof rx ry rz
    limits (-20.0 45.0)
           (-30.0 30.0)
           (-30.0 30.0)
  end
  begin
     id 17 
     name lclavicle
     direction 0.915958 0.399447 0.0382386  
     length 3.78965  
     axis 0 0 0   XYZ
    dof ry rz
    limits (-20.0 10.0)
           (0.0 20.0)
  end
  begin
     id 18 
     name lhumerus
     direction 1 -4.48967e-011 3.19303e-027   
     length 4.78095   
     axis -180 -30 -90   XYZ
    dof rx ry rz
    limits (-60.0 90.0)
           (-90.0 90.0)
           (-90.0 90.0)
  end
  begin
     id 19
     name lradius
     direction 1 -4.48967e-011 -3.77974e-027   
     length 3.58615   
     axis -180 -30 -90   XYZ
    dof rx
    limits (-10.0 170.0)
  end
  begin
     id 20
     name lwrist
     direction 1 -4.48927e-011 1.2807e-027   
     length 1.79307   
     axis 1.91374e-015 90 90   XYZ
    dof ry
    limits (-180.0 0.0)
 end
  begin
     id 21 
     name lhand
     direction 1 -4.49036e-011 2.5614e-027   
     length 0.659812   
     axis -1.63439e-015 90 90   XYZ
    dof rx rz
    limits (-90.0 90.0)
           (-45.0 45.0)
  end
  begin
     id 22 
     name lfingers
     direction 1 -4.49052e-011 5.1228e-027   
     length 0.531957   
     axis -3.26879e-015 90 90   XYZ
    dof rx
    limits (0.0 90.0)
  end
  begin
     id 23
     name lthumb
     direction 0.707107 -6.35012e-011 0.707107   
     length 0.763787   
     axis -90 45 2.85299e-015   XYZ
    dof rx rz
    limits (-45.0 45.0)
           (-45.0 45.0)
  end
  begin
     id 24 
     name rclavicle
     direction -0.895351 0.435135 0.0948887   
     length 3.70497  
     axis 0 0 0   XYZ 
    dof ry rz
    limits (-10.0 20.0)
           (-20.0 0.0)
  end
  begin
     id 25 
     name rhumerus
     direction -1 -4.48971e-011 2.38946e-027  
     length 4.48913   
     axis -180 30 90   XYZ
    dof rx ry rz
    limits (-90.0 60.0)
           (-90.0 90.0)
           (-90.0 90.0)
  end
  begin
     id 26 
     name rradius
     direction -1 -4.4895e-011 4.38668e-027   
     length 3.7051   
     axis -180 30 90   XYZ
    dof rx
    limits (-10.0 170.0)
  end
  begin
     id 27 
     name rwrist
     direction -1 -4.49007e-011 1.2807e-027   
     length 1.85255   
     axis 1.91374e-015 -90 -90   XYZ
    dof ry
    limits (-180.0 0.0)
  end
  begin
     id 28
     name rhand
     direction -1 -4.48851e-011 2.5614e-027   
     length 0.449136   
     axis -1.63439e-015 -90 -90   XYZ
    dof rx rz
    limits (-90.0 90.0)
           (-45.0 45.0)
  end
  begin
     id 29
     name rfingers
     direction -1 -4.49128e-011 5.1228e-027   
     length 0.362105   
     axis -3.26879e-015 -90 -90   XYZ
    dof rx
    limits (0.0 90.0)
  end
  begin
     id 30
     name rthumb
     direction -0.707107 -6.34851e-011 0.707107   
     length 0.519912   
     axis -90 -45 -2.85299e-015   XYZ
    dof rx rz
    limits (-45.0 45.0)
           (-45.0 45.0)
  end
:hierarchy
  begin
    root lhipjoint rhipjoint lowerback
    lhipjoint lfemur
    lfemur ltibia
    ltibia lfoot
    lfoot ltoes
    rhipjoint rfemur
    rfemur rtibia
    rtibia rfoot
    rfoot rtoes
    lowerback upperback
    upperback thorax
    thorax lowerneck lclavicle rclavicle
    lowerneck upperneck
    upperneck head
    lclavicle lhumerus
    lhumerus lradius
    lradius lwrist
    lwrist lhand lthumb
    lhand lfingers
    rclavicle rhumerus
    rhumerus rradius
    rradius rwrist
    rwrist rhand rthumb
    rhand rfingers
  end

#!OML:ASF I:\Actors\actors\Patient Classification 2\Patient 1\Session 1\actor1.ASF
:FULLY-SPECIFIED
:DEGREES
1
root -0.726884 18.6042 6.26003 -0.15379 -1.42835 -1.50459
lowerback 4.0188 0.170215 0.292291
upperback -2.49564 0.25134 0.135703
thorax -4.83253 0.117395 -0.0440918
lowerneck -9.37783 -0.858985 -0.258309
upperneck 21.0221 -1.78402 2.91135
head 8.07168 -0.590021 0.836065
rclavicle -2.00027e-015 2.98177e-015
rhumerus -49.0762 -5.86508 -86.9962
rradius 41.9573
rwrist 19.8416
rhand -3.11898 -31.6579
rfingers 7.12502
rthumb 22.5998 -60.3549
lclavicle -2.00027e-015 2.98177e-015
lhumerus -45.0037 7.06718 86.8373
lradius 39.0707
lwrist -10.446
lhand -3.96134 -26.6345
lfingers 7.12502
lthumb 21.7911 2.15871
rfemur 10.6234 3.19539 15.6392
rtibia 1.59028e-015
rfoot -20.1225 -11.6552
rtoes -4.45481
lfemur -1.34038 -7.47839 -12.9306
ltibia 21.1881
lfoot -22.6143 10.13
ltoes -55.9898
2
root -0.727944 18.6024 6.26065 -0.247258 -1.428 -1.4829
lowerback 4.19251 0.167644 0.263364
upperback -2.39855 0.246247 0.129267
thorax -4.83026 0.115766 -0.034522
lowerneck -9.34882 -0.842597 -0.179653
upperneck 20.7418 -1.76768 2.91718
head 7.97211 -0.578886 0.825408
rclavicle 1.33434e-014 -8.34896e-015
rhumerus -49.2766 -5.99768 -86.8184
rradius 42.5273
rwrist 18.6293
rhand -2.24347 -31.2714
rfingers 7.12502
rthumb 23.4399 -59.8637
lclavicle 1.33434e-014 -8.34896e-015
lhumerus -44.9817 8.31368 85.9607
lradius 39.2663
lwrist -8.97089
lhand -3.29558 -26.7889
lfingers 7.12502
lthumb 22.4303 1.92872
rfemur 10.7178 3.20273 15.6181
rtibia -6.52014e-014
rfoot -20.1061 -11.6532
rtoes -4.5377
lfemur -1.25025 -7.35884 -12.9453
ltibia 21.1944
lfoot -22.5539 10.0017
ltoes -55.9565
3
root -0.727087 18.5993 6.2662 -0.421015 -1.5047 -1.54377
lowerback 4.39124 0.189885 0.357336
upperback -2.23085 0.282411 0.132299
thorax -4.768 0.130955 -0.0875353
lowerneck -9.50242 -0.845255 -0.194524
upperneck 20.4805 -1.79536 3.07586
head 7.91542 -0.579579 0.876267
rclavicle 6.79595e-015 -1.13307e-014
rhumerus -49.6051 -6.57865 -86.2508
rradius 43.5396
rwrist 17.3488
rhand -0.729994 -31.0499
rfingers 7.12502
rthumb 24.891 -59.4493
lclavicle 6.79595e-015 -1.13307e-014
lhumerus -44.9601 10.339 84.4446
lradius 39.4978
lwrist -7.60873
lhand -1.32729 -26.8055
lfingers 7.12502
lthumb 24.3185 1.67183
rfemur 10.9011 3.29171 15.6926
rtibia 1.90833e-014
rfoot -20.1163 -11.6938
rtoes -4.72254
lfemur -1.05032 -7.35028 -12.9225
ltibia 21.2516
lfoot -22.6059 10.0721
ltoes -55.9494
4
root -0.72477 18.5949 6.27399 -0.648534 -1.62349 -1.60866
lowerback 4.63126 0.240391 0.517306
upperback -2.02449 0.359775 0.108024
thorax -4.68806 0.16438 -0.209557
lowerneck -9.67036 -0.866569 -0.259759
upperneck 20.0824 -1.85345 3.32499
head 7.81806 -0.591602 0.961765
rclavicle -5.54112e-015 2.38542e-015
rhumerus -49.9435 -7.93564 -84.968
rradius 45.1157
rwrist 14.1682
rhand 3.71324 -31.25
rfingers 7.12502
rthumb 29.1419 -58.9893
lclavicle -5.54112e-015 2.38542e-015
lhumerus -45.0351 12.6775 82.5252
lradius 40.3241
lwrist -6.37243
lhand 1.70562 -25.4075
lfingers 7.12502
lthumb 27.223 2.64815
rfemur 11.1476 3.42628 15.7743
rtibia -2.22639e-014
rfoot -20.1313 -11.7146
rtoes -4.7628
lfemur -0.755809 -7.4665 -12.9403
ltibia 21.2959
lfoot -22.7592 10.288
ltoes -55.9413
5
root -0.725822 18.5933 6.27581 -0.7843 -1.62998 -1.65865
lowerback 4.92408 0.275585 0.606642
upperback -1.88529 0.414228 0.10763
thorax -4.70845 0.188824 -0.266055
lowerneck -9.70431 -0.943542 -0.501742
upperneck 19.5347 -1.97877 3.72146
head 7.65207 -0.638623 1.11831
rclavicle 1.92759e-014 -8.34896e-015
rhumerus -50.2981 -9.29366 -83.3976
rradius 46.3921
rwrist 11.8225
rhand 4.45249 -30.7687
rfingers 7.12502
rthumb 29.8476 -58.3834
lclavicle 1.92759e-014 -8.34896e-015
lhumerus -45.0837 14.8305 80.442
lradius 41.461
lwrist -4.9623
lhand 4.88716 -22.8297
lfingers 7.12502
lthumb 30.2623 4.70974
rfemur 11.3015 3.44057 15.8452
rtibia -3.33958e-014
rfoot -20.1183 -11.7298
rtoes -4.5996
lfemur -0.62747 -7.45242 -12.9018
ltibia 21.3372
lfoot -22.7813 10.3526
ltoes -56.0629
6
root -0.727865 18.5947 6.27677 -0.848757 -1.59821 -1.69628
lowerback 5.18092 0.309341 0.618428
upperback -1.80508 0.463736 0.15147
thorax -4.7706 0.213622 -0.233138
lowerneck -9.59113 -1.04795 -0.738948
upperneck 18.9372 -2.11282 3.9968
head 7.44391 -0.703472 1.23312
rclavicle -2.23633e-016 -5.96354e-016
rhumerus -50.6354 -10.3656 -81.4733
rradius 47.3088
rwrist 9.34631
rhand 7.02521 -31.8069
rfingers 7.12502
rthumb 32.2997 -58.9523
lclavicle -2.23633e-016 -5.96354e-016
lhumerus -44.9903 16.9858 77.9564
lradius 41.9933
lwrist -4.10569
lhand 7.82307 -21.289
lfingers 7.12502
lthumb 33.0588 5.69878
rfemur 11.3806 3.41172 15.8971
rtibia 1.90833e-014
rfoot -20.0897 -11.7761
rtoes -4.61647
lfemur -0.596976 -7.42154 -12.8544
ltibia 21.3767
lfoot -22.7279 10.3759
ltoes -56.1847
7
root -0.724974 18.5939 6.28743 -0.980561 -1.73216 -1.7316
lowerback 5.33174 0.395463 0.733446
upperback -1.69142 0.588013 0.16073
thorax -4.7358 0.272272 -0.300275
lowerneck -9.46925 -1.10529 -0.637162
upperneck 18.4645 -2.16516 3.86806
head 7.26689 -0.740499 1.16756
rclavicle 1.20513e-014 -9.34288e-015
rhumerus -50.9112 -11.0856 -79.4297
rradius 47.8873
rwrist 5.66795
rhand 7.51 -34.5289
rfingers 7.12502
rthumb 32.761 -61.5792
lclavicle 1.20513e-014 -9.34288e-015
lhumerus -44.7616 19.0249 75.1068
lradius 42.4773
lwrist -3.48262
lhand 7.6501 -18.0749
lfingers 7.12502
lthumb 32.8943 8.94754
rfemur 11.5241 3.55541 15.9326
rtibia -3.18055e-014
rfoot -20.061 -11.8493
rtoes -5.02997
lfemur -0.409033 -7.57104 -12.913
ltibia 21.4246
lfoot -22.8464 10.6146
ltoes -56.1413
8
root -0.725711 18.5961 6.28989 -0.949394 -1.70764 -1.75554
lowerback 5.40942 0.425949 0.841498
upperback -1.63293 0.635903 0.13856
thorax -4.71712 0.292703 -0.388719
lowerneck -9.50499 -1.14336 -0.51968
upperneck 18.1798 -2.20958 3.77834
head 7.17979 -0.764946 1.1135
rclavicle -9.75287e-015 2.98177e-015
rhumerus -51.0031 -11.9405 -76.7137
rradius 48.067
rwrist 4.39941
rhand 10.0346 -36.121
rfingers 7.12502
rthumb 35.1592 -62.6398
lclavicle -9.75287e-015 2.98177e-015
lhumerus -44.4932 20.8027 71.8209
lradius 42.425
lwrist -3.81389
lhand 6.97406 -16.9784
lfingers 7.12502
lthumb 32.251 10.1769
rfemur 11.4949 3.52833 15.9548
rtibia 2.70347e-014
rfoot -20.0629 -11.908
rtoes -5.22382
lfemur -0.485189 -7.58193 -12.8935
ltibia 21.4753
lfoot -22.8144 10.6378
ltoes -56.1341
9
root -0.742462 18.6114 6.25811 -0.427763 -1.02118 -1.74612
lowerback 5.49671 0.225316 0.672571
upperback -1.78744 0.35865 0.163946
thorax -4.93227 0.159555 -0.242463
lowerneck -9.68502 -1.17711 -0.552899
upperneck 17.9552 -2.2562 3.84916
head 7.14135 -0.784217 1.13623
rclavicle -1.42814e-014 3.97569e-015
rhumerus -50.7252 -12.368 -73.9325
rradius 47.8849
rwrist 3.49602
rhand 10.075 -37.0095
rfingers 7.12502
rthumb 35.1974 -63.5193
lclavicle -1.42814e-014 3.97569e-015
lhumerus -44.081 21.9549 68.3104
lradius 41.8347
lwrist -4.11976
lhand 6.51014 -18.6968
lfingers 7.12502
lthumb 31.8093 8.5472
rfemur 10.9586 2.80091 15.96
rtibia -2.22639e-014
rfoot -20.0579 -11.9313
rtoes -4.80703
lfemur -1.42177 -7.18799 -12.5754
ltibia 21.5294
lfoot -22.222 9.85687
ltoes -56.2361
10
root -0.745704 18.6152 6.25622 -0.30324 -1.01817 -1.7808
lowerback 5.50798 0.224162 0.700459
upperback -1.71716 0.360339 0.195379
thorax -4.8654 0.160424 -0.22561
lowerneck -9.90277 -1.19685 -0.63175
upperneck 17.7156 -2.27483 3.91947
head 7.10449 -0.792915 1.16866
rclavicle 1.31105e-014 -2.78299e-015
rhumerus -50.1892 -12.4367 -71.0308
rradius 47.5448
rwrist 3.08218
rhand 8.24655 -36.6538
rfingers 7.12502
rthumb 33.4614 -63.5555
lclavicle 1.31105e-014 -2.78299e-015
lhumerus -43.3127 21.6161 65.5893
lradius 41.9434
lwrist -3.92099
lhand 6.30234 -17.497
lfingers 7.12502
lthumb 31.6114 9.78609
rfemur 10.8077 2.78774 15.9995
rtibia -2.06736e-014
rfoot -20.0158 -11.9546
rtoes -4.77896
lfemur -1.59421 -7.25527 -12.5298
ltibia 21.5784
lfoot -22.257 9.97072
ltoes -56.1911
11
root -0.753552 18.6162 6.25482 -0.278761 -0.901804 -1.7922
lowerback 5.68172 0.190788 0.626093
upperback -1.64383 0.314277 0.258196
thorax -4.88872 0.140897 -0.114967
lowerneck -10.1507 -1.2262 -0.900178
upperneck 17.4835 -2.3037 4.15353
head 7.07958 -0.804086 1.28464
rclavicle 1.44958e-014 0
rhumerus -49.6217 -12.0688 -68.1177
rradius 47.4199
rwrist 2.74679
rhand 7.10303 -36.5347
rfingers 7.12502
rthumb 32.3738 -63.665
lclavicle 1.44958e-014 0
lhumerus -42.4722 21.1332 62.7506
lradius 41.8174
lwrist -4.13381
lhand 6.41595 -17.7495
lfingers 7.12502
lthumb 31.7196 9.51225
rfemur 10.8111 2.66675 16.0364
rtibia 3.18055e-015
rfoot -20.0463 -11.8895
rtoes -4.61685
lfemur -1.66938 -7.24976 -12.4669
ltibia 21.5992
lfoot -22.2024 9.89568
ltoes -56.1986
12
root -0.767354 18.6156 6.25657 -0.281477 -0.7179 -1.81072
lowerback 5.87564 0.141575 0.458582
upperback -1.56667 0.241627 0.359281
thorax -4.9199 0.111559 0.090447
lowerneck -10.3659 -1.25684 -1.20738
upperneck 17.165 -2.32752 4.41733
head 7.02166 -0.813971 1.4168
rclavicle -3.73187e-015 4.17448e-015
rhumerus -49.088 -11.4815 -65.1826
rradius 47.5724
rwrist 2.26312
rhand 6.98701 -36.4402
rfingers 7.12502
rthumb 32.2633 -63.593
lclavicle -3.73187e-015 4.17448e-015
lhumerus -41.6525 20.9492 59.6568
lradius 41.5406
lwrist -4.46753
lhand 7.01118 -19.2012
lfingers 7.12502
lthumb 32.2863 7.94687
rfemur 10.8903 2.47699 16.1085
rtibia 1.59028e-014
rfoot -20.1584 -11.7732
rtoes -4.30229
lfemur -1.6898 -7.19468 -12.3498
ltibia 21.5741
lfoot -22.1277 9.6798
ltoes -56.2087
13
root -0.778819 18.6178 6.25729 -0.142776 -0.664235 -1.80098
lowerback 6.02431 0.144388 0.258129
upperback -1.57368 0.235743 0.464686
thorax -5.01291 0.116273 0.312491
lowerneck -10.4684 -1.28698 -1.31472
upperneck 16.7438 -2.34483 4.48683
head 6.9064 -0.827276 1.45316
rclavicle 6.68413e-015 1.68967e-015
rhumerus -48.5939 -10.9279 -62.1734
rradius 47.8709
rwrist 1.43398
rhand 7.28015 -36.4094
rfingers 7.12502
rthumb 32.5423 -63.5051
lclavicle 6.68413e-015 1.68967e-015
lhumerus -40.8429 20.4804 56.8035
lradius 41.6314
lwrist -4.13141
lhand 7.78105 -19.4951
lfingers 7.12502
lthumb 33.0188 7.50117
rfemur 10.7767 2.40889 16.1371
rtibia -1.59028e-015
rfoot -20.2059 -11.7301
rtoes -4.08787
lfemur -1.81914 -7.13145 -12.2779
ltibia 21.5248
lfoot -22.0415 9.5975
ltoes -56.2827
14
root -0.783553 18.6213 6.25478 0.0693916 -0.702207 -1.74562
lowerback 6.19763 0.168745 0.104899
upperback -1.64657 0.260525 0.531955
thorax -5.18869 0.134432 0.465378
lowerneck -10.6472 -1.30367 -1.30986
upperneck 16.4719 -2.35192 4.45861
head 6.85033 -0.83396 1.44063
rclavicle -2.3792e-015 -5.46658e-015
rhumerus -48.1102 -10.375 -59.1874
rradius 48.3191
rwrist 0.402578
rhand 8.27323 -37.0768
rfingers 7.12502
rthumb 33.4868 -63.973
lclavicle -2.3792e-015 -5.46658e-015
lhumerus -40.0355 19.5777 54.2374
lradius 42.0403
lwrist -3.11236
lhand 8.48432 -18.6185
lfingers 7.12502
lthumb 33.6874 8.23412
rfemur 10.5353 2.43083 16.0868
rtibia 1.11319e-014
rfoot -20.1912 -11.7456
rtoes -4.05403
lfemur -2.0219 -7.10994 -12.294
ltibia 21.4752
lfoot -21.9749 9.62772
ltoes -56.3255
